# xmcd CD database file
#
# Track frame offsets:
#	150
#	12427
#	24360
#	38455
#	52225
#	67235
#	79422
#	98050
#	111117
#	123290
#	140155
#
# Disc length: 2025 seconds
#
# Revision: 4
# Processed by: cddbd v1.5.2PL0 Copyright (c) Steve Scherf et al.
# Submitted via: CDex 1.51
#
DISCID=9707e70b
DTITLE=Marvin Gaye - Romantically Yours
DYEAR=1900
DGENRE=Soul
TTITLE0=More
TTITLE1=Why Did I Choose You ?
TTITLE2=Maria
TTITLE3=The Shadow Of Your Smile
TTITLE4=Fly Me To The Moon (In Other Words)
TTITLE5=I Won't Cry Anymore
TTITLE6=Just Like
TTITLE7=Walkin' In The Rain
TTITLE8=I Live For You
TTITLE9=Stranger In My Life
TTITLE10=Happy Go Lucky
EXTD=
EXTT0=
EXTT1=
EXTT2=
EXTT3=
EXTT4=
EXTT5=
EXTT6=
EXTT7=
EXTT8=
EXTT9=
EXTT10=
PLAYORDER=
